<?xml version="1.0" encoding="UTF-8" standalone="no"?>
<!-- Created with Inkscape (http://www.inkscape.org/) -->

<svg
   xmlns:dc="http://purl.org/dc/elements/1.1/"
   xmlns:cc="http://creativecommons.org/ns#"
   xmlns:rdf="http://www.w3.org/1999/02/22-rdf-syntax-ns#"
   xmlns:svg="http://www.w3.org/2000/svg"
   xmlns="http://www.w3.org/2000/svg"
   xmlns:sodipodi="http://sodipodi.sourceforge.net/DTD/sodipodi-0.dtd"
   xmlns:inkscape="http://www.inkscape.org/namespaces/inkscape"
   width="22.152901"
   height="206.66138"
   id="svg2"
   version="1.1"
   inkscape:version="0.91 r"
   sodipodi:docname="black-flat.svg"
   viewBox="0 0 22.1529 206.66138">
  <defs
     id="defs4" />
  <sodipodi:namedview
     id="base"
     pagecolor="#ffffff"
     bordercolor="#666666"
     borderopacity="1.0"
     inkscape:pageopacity="0.0"
     inkscape:pageshadow="2"
     inkscape:zoom="3.3222222"
     inkscape:cx="3.8995716"
     inkscape:cy="27.707394"
     inkscape:document-units="px"
     inkscape:current-layer="layer1"
     showgrid="false"
     width="1920px"
     inkscape:window-width="2560"
     inkscape:window-height="1416"
     inkscape:window-x="1920"
     inkscape:window-y="24"
     inkscape:window-maximized="1"
     inkscape:snap-nodes="true"
     inkscape:snap-global="true"
     inkscape:snap-bbox="true"
     inkscape:bbox-nodes="true"
     inkscape:object-nodes="true"
     fit-margin-top="0"
     fit-margin-left="0"
     fit-margin-right="0"
     fit-margin-bottom="0" />
  <metadata
     id="metadata7">
    <rdf:RDF>
      <cc:Work
         rdf:about="">
        <dc:format>image/svg+xml</dc:format>
        <dc:type
           rdf:resource="http://purl.org/dc/dcmitype/StillImage" />
        <dc:title />
      </cc:Work>
    </rdf:RDF>
  </metadata>
  <g
     inkscape:label="Layer 1"
     inkscape:groupmode="layer"
     id="layer1"
     transform="translate(-312.95916,-334.27714)">
    <g
       id="g4354">
      <rect
         transform="matrix(-0.00155712,-0.99999879,0.99999879,0.00155712,0,0)"
         y="312.93979"
         x="-539.9436"
         height="4.806571"
         width="205.65259"
         id="rect4145"
         style="opacity:1;fill:none;fill-opacity:1;fill-rule:nonzero;stroke:#000000;stroke-width:0.99999785;stroke-linecap:round;stroke-miterlimit:4;stroke-dasharray:none;stroke-opacity:1" />
      <path
         inkscape:connector-curvature="0"
         id="path4293"
         d="m 318.26651,334.7854 15.71124,18.83839"
         style="color:#000000;display:inline;overflow:visible;visibility:visible;fill:none;fill-rule:evenodd;stroke:#000000;stroke-width:1;stroke-linecap:butt;stroke-linejoin:miter;stroke-miterlimit:4;stroke-dasharray:none;stroke-dashoffset:0;stroke-opacity:1;marker:none;enable-background:accumulate" />
      <path
         inkscape:connector-curvature="0"
         id="path4295"
         d="m 333.97775,353.62379 0.63432,171.41874"
         style="color:#000000;display:inline;overflow:visible;visibility:visible;fill:none;fill-rule:evenodd;stroke:#000000;stroke-width:1;stroke-linecap:butt;stroke-linejoin:miter;stroke-miterlimit:4;stroke-dasharray:none;stroke-dashoffset:0;stroke-opacity:1;marker:none;enable-background:accumulate" />
      <path
         inkscape:connector-curvature="0"
         id="path4170"
         d="m 325.33378,533.0687 c -3.49369,3.34908 -5.68169,5.29006 -5.82257,5.16522 -0.41016,-0.36349 -0.58694,-201.31881 -0.1768,-201.0064 0.21432,0.16327 3.44294,3.96654 7.1747,8.45175 l 6.78502,8.15492 0.29874,85.43535 0.29874,85.43535 -1.48048,1.49929 c -0.81449,0.82439 -3.99907,3.91365 -7.07736,6.86451 l 10e-6,1e-5 z"
         style="fill:none;fill-opacity:1;stroke:none;stroke-width:1px;stroke-linecap:butt;stroke-linejoin:miter;stroke-opacity:1" />
      <path
         inkscape:connector-curvature="0"
         id="path4269"
         d="m 318.58674,540.43774 15.30487,-15.73285"
         style="color:#000000;display:inline;overflow:visible;visibility:visible;fill:none;fill-rule:evenodd;stroke:#000000;stroke-width:1;stroke-linecap:butt;stroke-linejoin:miter;stroke-miterlimit:4;stroke-dasharray:none;stroke-dashoffset:0;stroke-opacity:1;marker:none;enable-background:accumulate" />
      <path
         transform="translate(312.95916,334.27714)"
         inkscape:connector-curvature="0"
         id="path4352"
         d="M 6.2363462,168.35867 C 6.1223654,148.57522 6.0714509,103.2054 6.1232029,67.536845 l 0.094094,-64.8519204 7.1082406,8.5319424 7.10824,8.531943 0.192965,76.186199 c 0.10613,41.902411 0.277965,80.302801 0.381856,85.334201 0.154977,7.50554 0.118031,9.1042 -0.205777,8.90408 -0.276449,-0.17086 -2.486127,1.91264 -7.376952,6.95568 l -6.9822859,7.1996 -0.2072379,-35.9699 z"
         style="fill:#000000;stroke:none;stroke-width:1px;stroke-linecap:butt;stroke-linejoin:miter;stroke-opacity:1;fill-opacity:1" />
    </g>
    <path
       style="fill:#ffffff;stroke:none;stroke-width:1px;stroke-linecap:butt;stroke-linejoin:miter;stroke-opacity:1"
       d="M 1.4511053,172.64796 C 1.3410734,154.6442 1.2509786,108.65841 1.2508947,70.457327 l -1.525e-4,-69.4565225 1.6059226,0 1.6059227,0 0.2000974,26.2370715 C 4.7727384,41.668265 4.8627823,87.654051 4.8627823,129.42851 l 0,75.95357 -1.6058095,0 -1.6058096,0 -0.2000579,-32.73412 z"
       id="path4270"
       inkscape:connector-curvature="0"
       transform="translate(312.95916,334.27714)" />
  </g>
</svg>
