<?xml version="1.0" encoding="UTF-8" standalone="no"?>
<!-- Created with Inkscape (http://www.inkscape.org/) -->

<svg
   xmlns:dc="http://purl.org/dc/elements/1.1/"
   xmlns:cc="http://creativecommons.org/ns#"
   xmlns:rdf="http://www.w3.org/1999/02/22-rdf-syntax-ns#"
   xmlns:svg="http://www.w3.org/2000/svg"
   xmlns="http://www.w3.org/2000/svg"
   xmlns:sodipodi="http://sodipodi.sourceforge.net/DTD/sodipodi-0.dtd"
   xmlns:inkscape="http://www.inkscape.org/namespaces/inkscape"
   width="613.38751"
   height="457.49457"
   id="svg2"
   version="1.1"
   inkscape:version="0.91 r"
   sodipodi:docname="umbrella1.svg"
   viewBox="0 0 613.38751 457.49457">
  <defs
     id="defs4" />
  <sodipodi:namedview
     id="base"
     pagecolor="#ffffff"
     bordercolor="#666666"
     borderopacity="1.0"
     inkscape:pageopacity="0.0"
     inkscape:pageshadow="2"
     inkscape:zoom="2.7956616"
     inkscape:cx="306.69376"
     inkscape:cy="228.74728"
     inkscape:document-units="px"
     inkscape:current-layer="layer1"
     showgrid="false"
     width="1920px"
     inkscape:window-width="2560"
     inkscape:window-height="1416"
     inkscape:window-x="1920"
     inkscape:window-y="24"
     inkscape:window-maximized="1"
     fit-margin-top="0"
     fit-margin-left="0"
     fit-margin-right="0"
     fit-margin-bottom="0" />
  <metadata
     id="metadata7">
    <rdf:RDF>
      <cc:Work
         rdf:about="">
        <dc:format>image/svg+xml</dc:format>
        <dc:type
           rdf:resource="http://purl.org/dc/dcmitype/StillImage" />
        <dc:title></dc:title>
      </cc:Work>
    </rdf:RDF>
  </metadata>
  <g
     inkscape:label="Layer 1"
     inkscape:groupmode="layer"
     id="layer1"
     transform="translate(-465.14979,-197.2265)">
    <path
       style="fill:#000000"
       d="m 642.12113,651.60563 c -0.9227,-1.49302 10.92309,-24.41534 48.98249,-102.47425 19.7811,-40.57051 33.11356,-67.13194 32.08876,-67.97442 -0.5131,-0.42172 -5.1515,-2.65573 -10.3078,-4.96446 -5.1562,-2.30873 -14.7187,-6.67555 -21.25,-9.70405 -6.5312,-3.02848 -13.5625,-6.24048 -15.625,-7.13776 -10.6823,-4.64729 -34.3751,-15.00014 -38.75,-16.93229 -2.75,-1.21452 -8.9375,-3.73426 -13.75,-5.59942 -4.8125,-1.86517 -10.93662,-4.48996 -13.60915,-5.83289 l -4.85916,-2.44166 -3.5653,3.41577 c -4.2509,4.07262 -5.8933,3.39749 -2.43388,-1.00047 l 2.44253,-3.10517 -8.36253,-9.44168 c -18.05708,-20.38734 -94.74725,-89.34774 -114.88188,-103.30269 -3.77072,-2.61343 -4.25017,-2.6664 -7.75042,-0.85635 -7.36835,3.81031 -7.03036,1.38355 0.51248,-3.67958 4.42762,-2.97203 6.36405,-5.52272 9.48972,-12.5 4.81128,-10.73996 12.80178,-32.81541 16.74659,-46.26602 1.61304,-5.5 3.34711,-11.04929 3.85349,-12.33175 0.9299,-2.35508 -0.0685,-2.33449 -6.64499,0.13702 -0.85938,0.32296 -1.5625,0.0413 -1.5625,-0.62583 0,-2.00268 12.49642,-6.89064 50.12979,-19.6082 27.31845,-9.23181 39.8533,-12.80815 53.12501,-15.15718 29.33983,-5.19301 43.5565,-6.77514 62.7135,-6.97922 22.8206,-0.2431 34.9364,2.09923 66.3329,12.82413 l 22.0738,7.54028 11.875,-1.31849 c 6.5312,-0.72516 15.3356,-2.20712 19.5652,-3.29322 9.8863,-2.53866 15.5863,-1.12684 24.513,6.07156 13.6572,11.01302 39.7122,27.50014 52.7273,33.3648 10.3381,4.6584 29.4171,11.28905 41.7173,14.49828 6.4062,1.67146 13.9153,4.19582 16.6867,5.60972 14.2754,7.28272 29.3107,27.85576 36.0296,49.29962 2.6758,8.54035 2.9612,8.89724 13.9666,17.46848 26.8726,20.9289 51.10592,52.90645 72.27822,95.37629 8.8248,17.70172 12.9243,27.04496 25.786,58.77019 5.1054,12.59305 10.1247,24.18182 11.1541,25.75282 1.9998,3.05208 5.7205,15.99786 4.8485,16.86985 -0.658,0.65802 -0.3421,1.1162 -6.4895,-9.4115 -2.8559,-4.8908 -7.8623,-12.2033 -11.1255,-16.25 -17.0067,-21.09039 -73.93082,-86.39299 -81.59762,-93.60765 -2.1918,-2.0625 -5.1378,-5.61254 -6.5467,-7.88898 -1.603,-2.59015 -3.2334,-3.8812 -4.3568,-3.4501 -1.1764,0.45143 -2.2276,-0.55146 -3.0496,-2.90934 -1.2145,-3.48408 -5.8215,-6.55837 -29.8568,-19.92393 l -5.625,-3.12795 2.7608,3.05064 c 1.5184,1.67783 4.4925,6.69541 6.6092,11.15015 2.1166,4.45472 5.0172,9.94999 6.4458,12.21166 2.9685,4.69982 13.5304,30.0558 13.5477,32.52412 0.01,0.89996 0.5676,1.29261 1.2472,0.87258 0.69,-0.42647 0.9284,0.0371 0.5398,1.04979 -0.3828,0.99741 -0.095,2.18482 0.6393,2.6387 0.7344,0.45386 1.3387,1.77638 1.3429,2.93893 0,1.16255 0.8955,3.80123 1.9806,5.86373 1.9799,3.76342 13.7822,37.21354 18.0827,51.25 1.2638,4.125 3.1237,9.76105 4.1331,12.52455 1.6232,4.44409 9.6476,41.24572 9.8747,45.28795 0.1045,1.8601 1.7168,2.05906 2.7775,0.34276 1.20422,-1.94841 12.92762,-9.34466 23.66662,-14.93116 8.5688,-4.45757 14.7741,-7.3381 33.8521,-15.71438 6.3774,-2.80003 13.0524,-4.26347 13.8154,-3.02891 0.68,1.10022 -4.3636,3.64419 -7.2247,3.64419 -3.8849,0 -45.7972,20.15662 -55.3407,26.61461 -8.84542,5.98561 -10.64072,8.47191 -9.82062,13.60045 0.9374,5.86231 -1.2166,6.44534 -2.8442,0.76988 -1.225,-4.27116 -1.3609,-4.34262 -22.3352,-11.74349 -11.4495,-4.04001 -29.8211,-8.748 -69.375,-17.77836 -52.0585,-11.88523 -82.6856,-17.68642 -93.4688,-17.70425 -4.9401,-0.009 -5.4003,0.27436 -6.0937,3.74116 -0.9872,4.93621 -3.3852,4.867 -2.6596,-0.0767 0.5345,-3.6416 -0.039,-4.2226 -11.8446,-12.00706 -10.6043,-6.99214 -58.9942,-32.91619 -61.4414,-32.91619 -0.4569,0 -1.863,2.39063 -3.1247,5.3125 -2.0368,4.71681 -13.0462,28.00566 -33.2392,70.3125 -3.6096,7.5625 -11.4998,23.875 -17.5338,36.25 -6.034,12.375 -14.8252,30.65625 -19.5359,40.625 -4.7108,9.96875 -9.0745,18.29531 -9.6971,18.50349 -0.6227,0.20816 -1.13959,-0.57023 -1.58609,-1.29254 z m 350.02995,-91.35989 c -0.7502,-4.88435 -7.5616,-31.84115 -14.2922,-56.5625 -2.1526,-7.90625 -5.2498,-19.54164 -6.8828,-25.85642 -1.633,-6.31479 -3.5368,-12.50229 -4.2308,-13.75 -0.694,-1.24772 -5.0015,-11.83108 -9.5724,-23.51858 -7.619,-19.4817 -21.2575,-47.72629 -26.9529,-55.81796 -1.2845,-1.82488 -2.3354,-3.86956 -2.3354,-4.54374 0,-1.88969 -5.2279,-4.88439 -12.6473,-7.24479 -6.1639,-1.96096 -28.6815,-10.87625 -42.3527,-16.76851 -14.2138,-6.1261 -36.3218,-15 -37.3703,-15 -0.6386,0 -1.1634,4.07813 -1.1663,9.0625 -0.01,16.73718 -1.6124,36.46295 -4.0373,49.6875 -1.3236,7.21875 -3.2594,18.1875 -4.3017,24.375 -4.7124,27.97516 -7.0038,40.0646 -8.7285,46.05176 -2.1286,7.3895 -6.4063,28.1797 -8.7211,42.38574 l -1.5785,9.6875 6.7546,0 c 3.715,0 10.8089,0.83651 15.7643,1.85893 4.9554,1.0224 14.916,2.98726 22.1348,4.36635 38.4048,7.33697 93.1322,20.06941 116.25,27.04581 9.9891,3.01446 13.6926,4.35346 21.25,7.68296 1.7187,0.75721 3.2626,1.41482 3.4307,1.46135 0.1681,0.0465 -0.018,-2.02477 -0.4142,-4.6029 z M 801.63458,517.974 c 0,-2.57306 -0.4662,-3.06125 -2.352,-2.46275 -1.4843,0.47113 -2.6226,0.0411 -3.0857,-1.16576 -0.4036,-1.05174 -1.7359,-1.92086 -2.9606,-1.93139 -1.8296,-0.0157 -1.9048,-0.22281 -0.4214,-1.16132 1.2639,-0.79965 2.4758,-0.36908 4.0411,1.43577 l 2.2359,2.57795 1.1921,-2.97912 c 1.1915,-2.97745 1.1922,-2.97755 1.2714,-0.16664 0.044,1.54688 0.597,2.8125 1.2299,2.8125 1.2479,0 1.6254,-1.49146 4.4293,-17.5 1.0235,-5.84375 3.3122,-18.21875 5.086,-27.5 7.9755,-41.73096 16.5429,-94.71599 16.9779,-105 0.209,-4.94077 -0.334,-6.2332 -4.4637,-10.625 -2.5859,-2.75 -8.5763,-9.36094 -13.312,-14.69096 -4.7357,-5.33004 -8.9866,-9.72735 -9.4465,-9.77183 -0.4599,-0.0445 -2.1118,3.05449 -3.6708,6.88657 -1.5591,3.83207 -4.4438,9.35438 -6.4104,12.27181 -1.9666,2.91742 -4.4796,7.55441 -5.5844,10.30441 -1.1048,2.75 -4.5195,10.34375 -7.5884,16.875 -3.0688,6.53125 -8.5427,18.34375 -12.1641,26.25 -3.6214,7.90625 -10.5268,22.8125 -15.3452,33.125 -4.8184,10.3125 -10.7023,22.96875 -13.0754,28.125 -2.3732,5.15625 -5.18,11.22324 -6.2375,13.4822 -1.0575,2.25895 -1.7085,4.2277 -1.4466,4.375 0.2618,0.14729 11.4448,5.80384 24.8511,12.57011 13.4062,6.76628 29.1562,15.55783 35,19.53679 5.8437,3.97895 10.7656,7.30229 10.9375,7.38519 0.1719,0.0829 0.3125,-1.29344 0.3125,-3.05853 z m -33.75,-20.61454 c 0,-0.72807 0.5625,-0.97612 1.25,-0.55122 0.6875,0.4249 1.25,1.0206 1.25,1.32377 0,0.30318 -0.5625,0.55123 -1.25,0.55123 -0.6875,0 -1.25,-0.5957 -1.25,-1.32378 z m -37.4367,-29.61372 c 4.4601,-9.41069 15.3846,-32.6733 37.4227,-79.6875 2.9004,-6.1875 8.6402,-18.5625 12.7551,-27.5 4.1148,-8.9375 8.0036,-16.88182 8.6418,-17.65406 0.6381,-0.77224 0.8465,-2.22161 0.4631,-3.22084 -0.3835,-0.99922 0.725,-4.3049 2.4633,-7.34594 1.7383,-3.04103 3.1674,-6.13752 3.1756,-6.88106 0.01,-0.74355 -2.3755,-1.97584 -5.2974,-2.73841 -2.9219,-0.76258 -9.5313,-2.48823 -14.6875,-3.83478 -15.2007,-3.96965 -28.6802,-7.70916 -39.7162,-11.01809 l -10.3412,-3.10061 -7.7838,5.7774 c -21.2721,15.78884 -32.9371,26.6812 -58.2497,54.39139 -10.0872,11.04269 -34.71886,40.16076 -40.1591,47.4737 -1.71875,2.31039 -4.95313,6.40844 -7.1875,9.10678 -4.18634,5.05561 -5.00766,7.16952 -2.78559,7.16952 1.98611,0 28.29089,10.48945 39.34809,15.69071 2.0625,0.97018 16.9687,7.63975 33.125,14.82126 16.1562,7.18152 32.1875,14.47459 35.625,16.20684 3.4375,1.73225 6.6448,3.17917 7.1274,3.21536 0.4825,0.0363 3.21,-4.85604 6.0609,-10.87167 z m -120.46605,-61.5625 c -0.14201,1.30967 -1.51622,2.86711 -1.68905,3.75 0.39285,0 -0.10838,1.96875 -1.11373,4.375 -1.00538,2.40625 -1.39856,4.37339 -0.87371,4.3714 1.6746,-0.006 5.9682,-7.46416 5.58965,-9.70906 -0.28124,-1.66784 -0.10337,-1.7759 0.77745,-0.47253 0.90405,1.33763 1.56621,1.08427 3.17713,-1.21563 6.55594,-24.52012 7.9805,-9.93548 5.47254,-9.88713 -1.20313,0.0209 -2.1875,0.96894 -2.1875,2.10675 0,1.8604 0.25176,1.84089 2.5,-0.19374 1.375,-1.24436 2.49999,-3.05223 2.49999,-4.0175 0,-0.96527 0.50098,-1.44542 1.11328,-1.067 0.61229,0.37842 2.00398,-0.67136 3.09262,-2.33285 1.48578,-2.26758 1.59778,-3.17542 0.44924,-3.64058 -1.00401,-0.40662 -0.8829,-0.65363 0.35223,-0.71838 1.03531,-0.0542 2.64361,-1.81849 3.57401,-3.92047 1.80996,-4.43737 3.01119,-2.96985 1.3557,0.27722 -1.5563,2.99814 -0.9002,2.33761 19.6608,-19.79419 22.4639,-24.18015 42.1429,-42.63176 57.9021,-54.29097 9.1402,-6.76219 29.8672,-18.6238 32.6849,-18.70488 l 2.9401,-0.0846 -3.125,-1.45567 c -1.7187,-0.80061 -3.7802,-2.0807 -4.581,-2.84465 -0.8008,-0.76395 -3.1915,-2.10782 -5.3125,-2.98638 -2.1211,-0.87862 -3.8565,-2.0917 -3.8565,-2.69579 0,-0.60409 -0.9844,-1.11624 -2.1875,-1.1381 -1.2031,-0.0219 -3.3125,-0.9238 -4.6875,-2.00429 -4.9011,-3.85131 3.1718,-0.51491 12.8568,5.31354 5.0088,3.01427 10.6137,5.4805 12.4554,5.4805 2.873,0 3.0886,-0.23691 1.5182,-1.66819 -1.0067,-0.9175 -9.7054,-5.22421 -19.3304,-9.57046 -9.625,-4.34624 -18.2137,-8.45444 -19.0859,-9.12933 -1.0902,-0.84347 -2.2932,-0.587 -3.8485,0.82047 -2.8113,2.54421 -3.9406,2.59365 -3.9406,0.17251 0,-1.03125 0.675,-1.875 1.5,-1.875 3.1557,0 -1.0869,-2.09364 -7.125,-3.51605 -6.2455,-1.47127 -45.4418,-7.37248 -71.07884,-10.7013 l -13.57885,-1.76313 -15.79615,5.37789 c -28.25016,9.61793 -47.58907,18.08302 -92.60271,40.53439 -30.12693,15.02635 -28.74825,13.95273 -22.90202,17.83448 19.23472,12.77136 108.15273,93.92537 117.44143,107.18686 2.30481,3.29057 3.07013,3.24576 1.8298,-0.10713 9.08774,-15.7281 11.13833,-41.81717 8.15959,-16.09603 z m 4.25144,-1.97916 c 0.60853,-2.88204 1.05768,0.45847 0.6566,1.64062 -0.6736,-0.55148 -0.68593,-0.71695 -0.6566,-1.64062 z m 297.96381,-34.12606 c -2.0842,-1.93984 -75.6191,-40.14478 -77.2685,-40.14478 -0.2758,0 -0.4148,1.72391 -0.3088,3.83091 0.1847,3.67302 0.8099,4.08833 15.1662,10.07541 8.2355,3.43448 17.3581,7.33557 20.2725,8.66909 2.9144,1.33353 5.6178,2.42459 6.0076,2.42459 1.0121,0 25.2418,10.65701 31.1453,13.69868 5.3428,2.75277 6.8636,3.19388 4.9857,1.4461 z m -81.8125,-22.43355 c 0,-9.48022 0.7665,-8.57572 -11.875,-14.01287 -3.4375,-1.47849 -7.7969,-3.43483 -9.6875,-4.34745 -1.8906,-0.91261 -3.4375,-1.3548 -3.4375,-0.98262 0,0.97301 23.7137,27.71627 24.6875,27.84152 0.1719,0.0221 0.3125,-3.80226 0.3125,-8.49858 z m -36.875,-8.96123 c 0.4249,-0.6875 0.1769,-1.25 -0.5512,-1.25 -0.7281,0 -1.3238,0.5625 -1.3238,1.25 0,0.6875 0.2481,1.25 0.5512,1.25 0.3032,0 0.8989,-0.5625 1.3238,-1.25 z m 37.0482,-10.56344 c -0.3773,-0.71065 -0.8059,-0.66355 -1.0661,0.11713 -0.4904,1.47123 -11.9382,0.0517 -16.812,-2.08468 -2.2063,-0.96715 -0.6285,-1.14041 6.4549,-0.70881 l 9.375,0.57123 -6.041,-3.1173 c -4.3145,-2.22637 -7.0792,-2.88931 -9.6732,-2.31957 -9.3027,2.04321 -5.1565,6.74503 10.3843,11.77598 2.5685,0.8315 5.0879,2.17391 5.5985,2.98313 1.0616,1.68249 2.7878,-5.31785 1.7796,-7.21713 z m -30.7982,-4.43656 c -0.4249,-0.6875 -1.335,-1.25 -2.0225,-1.25 -0.6875,0 -0.9024,0.5625 -0.4775,1.25 0.4249,0.6875 1.335,1.25 2.0225,1.25 0.6875,0 0.9024,-0.5625 0.4775,-1.25 z m -6.5703,-3.33045 c -0.8636,-0.34819 -1.2349,-1.17571 -0.825,-1.83894 0.4099,-0.66322 -1.696,-3.8801 -4.6797,-7.14862 -2.9838,-3.26851 -5.9875,-6.87644 -6.675,-8.01761 -0.6875,-1.14118 -6.7103,-4.8657 -13.3841,-8.27673 l -12.1341,-6.20187 -10.9909,5.68327 c -6.045,3.1258 -11.7361,6.3805 -12.6468,7.23268 -2.1313,1.9942 -0.7441,2.44945 49.1559,16.1318 10.3736,2.84438 15.968,3.96331 12.1797,2.43602 z m -21.5547,-13.54455 c -1.7188,-0.98253 -2.5625,-1.78641 -1.875,-1.78641 0.6875,0 2.6562,0.80389 4.375,1.78641 1.7187,0.98252 2.5625,1.78641 1.875,1.78641 -0.6875,0 -2.6563,-0.80389 -4.375,-1.78641 z m -10.9375,-6.91201 c -3.6094,-2.06996 -6.5625,-4.08688 -6.5625,-4.48205 0,-0.75005 10.9941,5.29742 13.0625,7.18525 2.1223,1.93697 0.1894,1.13315 -6.5,-2.7032 z m 47.8198,19.51372 3.418,-1.77329 -5.3849,-2.60171 c -6.9525,-3.35905 -7.6636,-3.22758 -3.0404,0.56204 2.0625,1.6906 3.0469,3.07663 2.1875,3.08004 -0.8594,0.004 -1.5625,0.56871 -1.5625,1.25621 0,1.62426 0.3155,1.58659 4.3823,-0.52329 z m -9.6584,-4.55587 c -0.096,-3.37768 -0.9705,-4.26413 -7.4164,-7.518 -4.0191,-2.02885 -7.3075,-3.53118 -7.3075,-3.3385 0,0.77306 13.1843,14.56496 13.9789,14.62315 0.4696,0.0344 0.8049,-1.66061 0.745,-3.76665 z m -295.9717,-21.38465 c 41.52163,-20.55168 79.41717,-36.45645 98.0298,-41.14316 3.19757,-0.80517 5.65159,-1.62581 5.45339,-1.82367 -0.19821,-0.19785 -6.82914,-1.22682 -14.73539,-2.2866 -7.90625,-1.05977 -26.75,-3.63083 -41.875,-5.71346 -15.125,-2.08263 -31.77567,-4.14909 -37.00148,-4.59215 l -9.50148,-0.80556 -0.83101,5.1968 c -1.57431,9.84524 -17.63944,55.1191 -21.52926,60.6726 -2.48788,3.55195 -2.11684,5.59405 0.46951,2.58401 1.18146,-1.375 10.86588,-6.81496 21.52092,-12.08881 z"
       id="path4179"
       inkscape:connector-curvature="0"
       sodipodi:nodetypes="cscsssssscsscssssssssssssscsssssccsssccssscscscsccccccccscscsscssscssccscsssssccccsssscsssscsssscsssssccscccsccccssssssccsscsscscssssssssscssccscssscssssssssccccscscccsssssscccssscsssscsssssccsssscssssccccccscsssscsssscsssssscccscssssccssssscscsscscsccscscsscsscsscsscssccsscssscssss" />
  </g>
</svg>
